<?xml version="1.0" standalone="no"?>
<!DOCTYPE svg PUBLIC "-//W3C//DTD SVG 20010904//EN"
 "http://www.w3.org/TR/2001/REC-SVG-20010904/DTD/svg10.dtd">
<svg version="1.0" xmlns="http://www.w3.org/2000/svg"
 width="2000.000000pt" height="2000.000000pt" viewBox="0 0 2000.000000 2000.000000"
 preserveAspectRatio="xMidYMid meet">
<metadata>
Created by potrace 1.11, written by Peter Selinger 2001-2013
</metadata>
<g transform="translate(0.000000,2000.000000) scale(0.100000,-0.100000)"
fill="#000000" stroke="none">
<path d="M6800 10000 l0 -5030 5120 0 5120 0 0 5030 0 5030 -5120 0 -5120 0 0
-5030z m9470 2310 l0 -1950 -420 0 -420 0 0 425 0 425 -385 0 -385 0 0 -1215
0 -1215 385 0 385 0 0 490 0 490 420 0 420 0 0 -2010 0 -2010 -4350 0 -4350 0
0 1519 0 1519 293 4 c273 4 300 6 416 32 156 34 235 64 330 123 184 115 333
309 405 525 74 222 87 634 30 913 -74 364 -284 634 -584 754 -152 60 -243 73
-582 78 l-308 5 0 1524 0 1524 4350 0 4350 0 0 -1950z m-8289 -1677 c174 -51
259 -150 307 -358 24 -101 23 -499 -1 -605 -30 -131 -90 -227 -173 -276 -78
-46 -135 -56 -346 -61 l-198 -5 0 667 0 668 173 -6 c127 -4 189 -10 238 -24z"/>
<path d="M12935 11244 c-287 -40 -463 -105 -633 -234 -130 -98 -219 -210 -297
-372 -96 -200 -130 -398 -122 -698 6 -210 24 -326 73 -462 99 -275 315 -523
547 -628 262 -119 723 -151 1047 -74 299 71 533 271 660 563 50 116 83 231 67
237 -73 27 -653 192 -658 186 -3 -4 -12 -29 -19 -57 -20 -79 -93 -226 -137
-275 -76 -85 -194 -130 -338 -130 -194 0 -334 81 -405 235 -54 117 -65 195
-65 460 0 219 2 247 23 318 29 102 60 162 116 224 94 104 197 148 351 148 118
0 176 -17 265 -76 67 -45 120 -112 152 -191 12 -29 25 -57 28 -61 6 -7 657
128 668 138 6 6 -18 74 -54 153 -113 248 -310 438 -540 521 -156 57 -257 72
-489 76 -115 2 -223 1 -240 -1z"/>
<path d="M10017 11203 c-3 -5 -210 -543 -460 -1198 -251 -654 -459 -1198 -462
-1207 -7 -17 16 -18 384 -18 l390 0 31 103 c18 56 45 146 62 200 l30 97 433 0
433 0 32 -102 c17 -57 45 -147 62 -200 l31 -98 399 0 c316 0 399 3 396 13 -3
6 -211 553 -464 1214 l-459 1203 -417 0 c-229 0 -419 -3 -421 -7z m547 -1063
c70 -223 129 -413 132 -422 5 -17 -12 -18 -265 -18 -149 0 -271 3 -271 8 0 27
265 860 271 850 4 -7 64 -195 133 -418z"/>
<path d="M1660 10910 l0 -300 390 0 390 0 0 -915 0 -915 380 0 380 0 0 915 0
915 390 0 390 0 0 300 0 300 -1160 0 -1160 0 0 -300z"/>
<path d="M4771 11188 c-5 -13 -212 -552 -459 -1198 -248 -646 -453 -1183 -457
-1193 -7 -16 14 -17 385 -15 l393 3 39 130 c21 72 48 160 59 198 l20 67 434 0
434 0 35 -112 c19 -62 47 -152 61 -200 l27 -88 400 0 c316 0 399 3 396 13 -2
6 -211 553 -464 1214 l-459 1203 -418 0 -417 0 -9 -22z m554 -1048 c69 -223
128 -413 131 -422 5 -17 -12 -18 -265 -18 -149 0 -271 3 -271 7 0 27 266 860
271 850 4 -6 64 -194 134 -417z"/>
<path d="M17580 9995 l0 -1215 380 0 380 0 0 1215 0 1215 -380 0 -380 0 0
-1215z"/>
</g>
</svg>
